<?xml version="1.0" encoding="UTF-8" standalone="no"?>
<!-- Created with Inkscape (http://www.inkscape.org/) -->

<svg
   width="628.86646mm"
   height="1595.0372mm"
   viewBox="0 0 628.86646 1595.0372"
   version="1.1"
   id="svg1"
   xml:space="preserve"
   xmlns="http://www.w3.org/2000/svg"
   xmlns:svg="http://www.w3.org/2000/svg"><path
     id="head"
     d="m 309.26776,0.08051165 c -9.92398,0.3847 -18.79503,2.15789005 -28.2329,5.55005005 -21.64004,7.7778403 -34.58298,24.5065103 -38.7718,50.1111503 -1.49329,9.12787 -1.99148,17.06086 -2.00918,32.01458 -0.0106,8.99746 -0.21673,11.74408 -1.47019,19.579168 -1.25765,7.86155 -1.53561,11.45551 -1.20509,15.57734 0.73302,9.14127 2.97089,15.69974 8.54263,25.0362 3.33057,5.58098 4.31754,7.59313 7.13393,14.54072 1.30036,3.20778 3.8968,8.98735 5.77019,12.84366 4.63196,9.53469 5.62803,12.56289 5.99343,18.22214 0.25309,3.91989 -0.2229,7.60386 -2.15852,16.70286 -1.69044,7.94645 -0.51734,12.19254 3.94136,14.26683 1.60366,0.74605 4.59483,1.50879 6.65024,1.6955 0.58208,0.0525 19.63208,0.0791 42.33333,0.0584 39.02498,-0.0356 41.37597,-0.0641 43.12709,-0.52038 4.274,-1.11373 6.73499,-2.9452 7.7003,-5.73143 0.75524,-2.17988 0.63429,-5.96548 -0.37155,-11.621 -1.22284,-6.87567 -1.45692,-9.53627 -1.30121,-14.78566 0.20595,-6.94325 0.85728,-9.11978 5.83117,-19.47788 1.53732,-3.20146 3.88086,-8.49974 5.20743,-11.77396 2.71609,-6.70381 4.21479,-9.68052 7.46673,-14.82648 4.073,-6.44525 6.00484,-11.00953 7.21145,-17.04031 1.5493,-7.74365 1.52141,-13.11513 -0.12093,-23.14897 -1.3599,-8.308368 -1.53993,-10.940938 -1.71049,-25.020688 -0.26915,-22.21841 -2.06364,-34.16701 -6.8678,-45.73468 -4.25212,-10.23847 -10.71592,-18.07291 -20.08973,-24.34942 -11.12916,-7.4518603 -24.38057,-11.2448803 -42.2646,-12.09797035 -3.60202,-0.17182 -7.0273,-0.198 -10.33529,-0.0698 z"
     data-part="head" /><path
     id="torso"
     d="m 322.66436,249.16608 c -76.08532,0.011 -88.53891,0.13483 -93.00104,0.92397 -6.44914,1.14055 -9.26519,2.30364 -27.51667,11.36727 -8.22193,4.08298 -17.03256,8.36079 -19.57917,9.5064 -4.39453,1.97693 -8.78729,4.09565 -11.35124,5.47511 -1.6962,0.91259 -4.89641,4.00294 -5.94383,5.73919 -1.17755,1.95196 -2.1422,5.07493 -2.58847,8.3814 -0.51935,3.84794 -0.52961,155.20037 -0.0108,160.31269 0.68738,6.77399 1.18312,8.95668 6.40013,28.20293 6.45224,23.80319 9.87573,39.0036 12.81213,56.88542 1.51542,9.22842 1.81404,11.63644 2.79208,22.48958 1.30253,14.45392 1.32478,15.15071 1.32447,41.53959 -3.4e-4,29.16707 -0.0845,30.94852 -2.29443,48.55104 -0.7879,6.2757 -0.93127,11.41595 -0.38034,13.62604 1.3248,5.31446 5.19979,7.83504 12.99869,8.45478 v -5.2e-4 c 3.77294,0.29983 232.33793,0.31382 236.18662,0.0145 5.39589,-0.4197 8.25963,-1.37065 10.58488,-3.51399 3.14673,-2.90056 3.8399,-7.23098 2.74092,-17.12557 -0.28285,-2.54662 -0.9653,-9.33318 -1.5167,-15.08125 l -1.00304,-10.45104 5.1e-4,-26.19375 5.2e-4,-26.19375 1.1219,-11.70523 c 1.86723,-19.47522 3.74768,-31.73902 7.10912,-46.37082 1.99928,-8.7025 7.8967,-31.95477 10.30067,-40.61354 3.96297,-14.27411 4.4807,-17.11317 4.89737,-26.85521 0.18351,-4.29084 0.24223,-31.52748 0.17363,-80.56562 -0.0935,-66.85162 -0.1459,-74.31577 -0.53278,-76.46458 -1.34824,-7.48838 -4.10519,-11.0308 -11.48819,-14.76034 -1.86155,-0.94037 -6.2423,-2.99651 -9.7348,-4.56872 -3.4925,-1.57221 -13.07704,-6.22315 -21.29896,-10.3358 -14.62067,-7.31334 -17.35136,-8.57875 -20.43235,-9.46557 -4.35792,-1.25442 -1.81157,-1.21608 -80.77078,-1.20458 z"
     data-part="torso" /><path
     id="rightArm"
     d="m 130.57686,291.62757 c -3.33884,0.01 -3.53646,0.0428 -6.74688,1.13378 -4.38744,1.49094 -10.47529,4.50833 -14.55208,7.213 -1.81901,1.20679 -3.43965,2.32087 -3.60133,2.4753 -0.16168,0.15443 -0.75699,0.63591 -1.32292,1.07022 -1.36129,1.04471 -6.929395,6.60702 -7.920435,7.91218 -0.42973,0.56593 -0.90597,1.16123 -1.05834,1.32291 -0.78897,0.8372 -3.97991,5.96182 -5.3728,8.62842 -5.05731,9.68196 -8.54508,21.87387 -10.86135,37.96771 -0.43981,3.05593 -1.46419,12.75953 -2.27635,21.56354 -2.1422,23.22211 -2.08165,22.89576 -8.19639,44.18025 -5.92157,20.61209 -7.34474,26.64761 -9.88984,41.94162 -1.74107,10.46246 -2.53337,16.79102 -3.34502,26.72292 -2.13817,26.16415 -3.3032,30.92345 -11.99771,49.00062 -4.97248,10.33852 -6.71808,14.54844 -9.26869,22.35471 -7.52419,23.02825 -11.88507,46.32522 -14.17898,75.753 -0.22687,2.91042 -0.70801,8.74448 -1.0697,12.96459 -2.00489,23.39303 -2.24891,27.09514 -2.50941,38.1 -0.14468,6.11187 -0.32274,11.58875 -0.39584,12.17083 -0.0731,0.58208 -0.43361,4.51114 -0.80098,8.73125 -0.36737,4.2201 -0.90043,10.23276 -1.18494,13.36146 -0.28451,3.1287 -0.69822,8.72463 -0.91933,12.43541 -0.83298,13.97979 -1.55897,19.41014 -4.7738701,35.71875 -1.88326,9.55342 -5.63399,29.61175 -6.45645,34.52813 -1.80421998,10.78503 -2.31875998,19.74947 -1.49654998,26.06146 0.97503998,7.48522 4.46814998,22.7988 6.36756998,27.91354 1.15,3.09673 3.4688801,7.67398 5.2523901,10.36784 1.54291,2.33045 4.92898,6.19629 6.67763,7.62383 0.71302,0.58208 1.48085,1.23692 1.70636,1.4552 2.00438,1.94012 7.87043,5.89909 11.90056,8.03156 5.60561,2.96609 15.58802,6.77885 20.59875,7.86773 h 5.1e-4 c 3.45948,0.75178 6.54527,0.58908 8.79326,-0.46353 2.60495,-1.21976 3.59434,-2.99651 3.35174,-6.01876 -0.29322,-3.65299 -2.74736,-6.64389 -10.25519,-12.49949 -8.90908,-6.94849 -13.29944,-11.68766 -16.26257,-17.55501 -2.32114,-4.59612 -3.51647,-9.71615 -3.76773,-16.13958 -0.3772,-9.64299 1.89439,-17.3133 6.30039,-21.27467 1.98561,-1.78523 3.41984,-2.38309 5.9862,-2.49597 1.97664,-0.0869 2.33207,-0.0229 3.83646,0.69195 4.49268,2.13483 7.01151,6.37828 9.57099,16.12459 2.22372,8.46779 3.6605,11.76455 6.28799,14.4291 1.70842,1.73251 3.37498,2.56589 5.54023,2.77037 4.2745,0.40367 7.16105,-2.78093 7.89822,-8.71316 0.3329,-2.67898 0.13701,-5.7392 -1.02888,-16.08429 -1.70252,-15.1066 -2.03564,-19.04905 -2.41174,-28.54245 -0.1463,-3.69283 -0.44788,-8.03862 -0.67076,-9.65729 -1.00569,-7.3039 -3.25736,-14.03045 -8.37933,-25.03568 -5.56203,-11.95078 -6.72695,-15.57974 -7.21971,-22.48958 -0.5383,-7.54841 2.30055,-20.03998 7.54631,-33.20521 4.04799,-10.15919 10.54993,-24.14273 20.17603,-43.39167 9.89628,-19.78919 12.075665,-24.57413 15.725125,-34.52812 3.14239,-8.57097 5.47554,-16.9613 7.46828,-26.85521 2.27458,-11.29321 2.66719,-15.92131 2.67219,-31.48542 0.007,-23.45879 0.34677,-25.13949 8.4677,-41.93646 5.608,-11.59931 7.09492,-15.02385 10.20661,-23.50347 4.32298,-11.7805 7.15624,-22.9077 8.09512,-31.79444 0.50916,-4.82321 0.51596,-173.78696 0.007,-176.74167 -0.36314,-2.107 -1.16369,-4.92641 -1.66449,-5.86217 -0.60275,-1.12625 -2.50056,-2.93247 -3.80391,-3.62046 -1.24976,-0.65973 -1.54934,-0.70301 -4.77283,-0.69401 z"
     data-part="rightArm" /><path
     id="leftArm"
     d="m 498.9089,291.22708 c -2.86643,0.009 -4.25781,0.35722 -5.8999,1.47794 -2.45189,1.67341 -3.82115,4.36001 -4.63796,9.09919 -0.50976,2.95759 -0.50187,169.89407 0.008,175.28646 0.84021,8.88132 2.79175,17.5064 6.58565,29.10417 3.08314,9.42502 4.71509,13.31185 11.05152,26.32604 4.84866,9.95851 6.03884,12.71409 7.14168,16.53284 1.57795,5.46389 1.58363,5.54276 1.61127,22.4932 0.0252,15.47525 0.0837,16.83129 1.0573,24.60625 1.63714,13.07429 5.4457,27.67037 10.91717,41.83879 2.81531,7.29029 4.24324,10.38167 12.87983,27.87892 21.09893,42.74525 28.34686,61.55159 29.12742,75.57885 0.43112,7.74756 -1.06907,13.68575 -6.23993,24.69823 -5.66704,12.06921 -8.34862,20.62838 -9.53275,30.42708 -0.14947,1.23693 -0.38774,6.23756 -0.52968,11.1125 -0.29032,9.97064 -0.4838,12.58158 -1.58543,21.43125 -0.42571,3.41974 -0.89993,7.80329 -1.0542,9.74101 -0.82027,10.30251 2.12531,16.18073 7.8052,15.57631 1.60974,-0.1713 3.42827,-0.95997 4.5067,-1.95492 2.1729,-2.0047 4.15698,-6.0523 5.68647,-11.59981 3.05499,-11.08047 4.4115,-14.14803 7.52513,-17.01808 1.90054,-1.75186 3.82236,-2.53199 6.22649,-2.52749 2.20345,0.004 3.61334,0.50046 5.71851,2.01228 1.39037,0.99848 3.27112,3.39076 4.32739,5.50457 3.72618,7.45676 3.74061,19.40202 0.0351,28.87059 -3.02649,7.73359 -7.49748,13.15891 -17.25683,20.94032 -2.85532,2.27663 -5.86727,4.88601 -6.69313,5.79862 -5.11879,5.65644 -4.08196,11.57718 2.26188,12.91497 3.75074,0.79096 11.29992,-0.99297 20.73516,-4.90048 17.30566,-7.16695 26.90998,-16.66328 31.83372,-31.47559 2.01461,-6.06063 5.28669,-19.93015 6.02341,-25.5323 0.82722,-6.29027 0.0727,-15.93557 -2.40089,-30.69373 -0.52421,-3.12753 -2.48923,-13.42554 -4.36666,-22.88439 -5.04132,-25.39908 -5.0754,-25.62665 -5.68958,-38.30206 -0.22396,-4.62225 -0.70445,-11.46834 -1.06763,-15.21354 -0.36317,-3.74519 -0.89643,-9.30971 -1.18546,-12.36565 -0.28902,-3.05594 -0.58104,-5.97297 -0.64854,-6.48229 -0.0675,-0.50932 -0.24049,-7.17682 -0.38447,-14.81667 -0.20282,-10.76197 -0.41058,-15.64863 -0.92294,-21.69583 -0.36373,-4.29287 -0.79314,-9.47208 -0.95446,-11.50938 -1.32445,-16.72687 -3.61252,-39.89471 -4.63796,-46.96354 -2.29045,-15.78907 -4.54742,-26.22599 -9.12555,-42.20104 -2.87795,-10.0424 -7.40255,-21.63656 -12.02924,-30.82396 -1.72362,-3.42264 -4.83311,-10.47861 -5.91901,-13.43122 -2.21879,-6.03297 -3.1267,-10.72708 -4.00389,-20.70003 -0.66412,-7.55056 -2.11603,-20.84603 -3.18637,-29.17651 -1.98468,-15.44686 -5.01504,-29.61922 -9.82783,-45.96516 -6.88583,-23.38674 -7.93398,-28.44043 -8.80617,-42.46562 -0.51057,-8.21017 -0.89411,-12.03845 -2.41174,-24.06778 -1.39987,-11.09592 -2.31511,-16.39744 -3.91862,-22.69888 -2.12505,-8.35097 -4.59694,-15.17315 -7.85482,-21.67723 -1.3242,-2.64364 -4.37724,-7.85786 -5.31596,-9.07903 -4.01231,-5.21961 -7.48236,-8.37075 -13.79502,-12.52637 -7.96832,-5.24554 -16.11955,-8.517 -21.18269,-8.5018 z"
     data-part="leftArm" /><path
     id="rightLeg"
     d="m 238.12998,693.78442 c -48.34138,0 -51.0467,0.0246 -53.18125,0.48369 -6.28052,1.35089 -9.43692,3.98865 -11.81271,9.87227 -1.81122,4.48547 -4.95353,18.17844 -12.52947,54.59925 -1.43782,6.91224 -3.38646,16.13958 -4.33049,20.50521 -2.20792,10.21046 -3.87676,18.71589 -6.49727,33.1158 -2.67143,14.67969 -2.96228,16.4315 -5.68493,34.22065 -2.59485,16.95403 -2.7844,18.31798 -4.90254,35.32188 -2.55443,20.50642 -3.47042,29.36944 -3.99356,38.62916 -0.1562,2.76491 -0.51752,7.76552 -0.80253,11.1125 -0.285,3.34698 -0.69509,10.31214 -0.91157,15.47813 -0.21648,5.16599 -0.56988,11.29771 -0.78548,13.62604 -0.82932,8.95571 -0.98126,15.90758 -0.86042,39.4229 0.10797,21.0107 0.17479,23.8865 0.68162,29.4618 0.30891,3.3981 0.74119,9.1726 0.96118,12.8323 0.45692,7.6013 0.38816,6.7727 1.60558,19.298 2.29826,23.6455 2.29159,23.6918 -7.81554,54.6923 -5.80651,17.8097 -7.86196,25.0632 -13.45758,47.4927 -4.65941,18.6768 -6.61427,28.1502 -9.93686,48.1542 -2.31301,13.9257 -3.58166,25.9039 -4.260195,40.2166 -0.22077,4.6567 -0.66732,11.3242 -0.99219,14.8167 -0.5746,6.1775 -0.59059,7.2559 -0.58859,39.6875 0.002,32.0963 0.0241,33.6035 0.58911,40.4813 0.32279,3.929 0.71206,10.2393 0.86454,14.0229 0.2762,6.8534 0.41178,8.9769 1.183385,18.5208 0.22354,2.7649 0.51927,9.8491 0.65733,15.7427 0.13806,5.8936 0.44809,13.0969 0.68884,16.0073 0.45858,5.5438 0.40866,12.3756 -0.14727,20.1083 -0.14929,2.0772 -0.19551,6.842 -0.10491,10.848 0.16023,7.0873 -0.32957,21.7489 -0.97203,29.1041 -1.011915,11.5851 -3.352355,19.4852 -8.496115,28.6773 -6.78433,12.1239 -16.35663,25.2365 -33.53284,45.9352 -3.86419,4.6567 -8.31187,10.1158 -9.88363,12.1311 -9.25797,11.8704 -12.81293,20.3373 -11.18175,26.6304 1.54461,5.959 6.83372,8.7615 18.43505,9.7679 4.62409,0.4011 31.95786,0.152 36.73884,-0.3349 2.25557,-0.2297 7.494325,-0.6621 11.641665,-0.9607 11.37152,-0.8186 12.58064,-0.9906 26.9875,-3.8359 5.45704,-1.0777 12.30312,-2.398 15.21354,-2.9342 9.21598,-1.698 13.83065,-3.4347 17.10593,-6.4378 4.2382,-3.886 5.78053,-8.261 5.78053,-16.3959 0,-6.468 -0.84027,-12.5058 -3.94498,-28.3477 -3.24752,-16.5706 -4.12686,-22.8522 -5.31182,-37.9377 -1.04478,-13.301 1.01372,-34.5911 5.58002,-57.7071 2.29622,-11.6241 10.69721,-46.2984 15.32103,-63.2354 1.03291,-3.7835 3.23233,-12.1179 4.88756,-18.5208 1.65524,-6.4029 3.49065,-13.3831 4.0783,-15.5117 0.58765,-2.1287 2.20908,-8.2009 3.6034,-13.4938 1.39433,-5.2929 3.7119,-13.7909 5.15007,-18.8841 9.11256,-32.2719 11.95852,-46.4737 13.36198,-66.675 0.22241,-3.2015 0.67181,-8.7974 0.99839,-12.4354 0.57058,-6.3565 0.59376,-7.7243 0.59376,-35.0573 0,-27.8699 -0.0126,-28.5786 -0.62839,-35.1896 -0.77661,-8.3381 -0.85658,-16.844 -0.20154,-21.4313 0.95335,-6.6763 2.17145,-9.9861 7.8047,-21.2049 6.43337,-12.8122 13.27514,-29.0941 18.6061,-44.2794 1.87474,-5.3403 10.27922,-32.515 13.70665,-44.3177 1.33112,-4.5839 3.2971,-11.2514 4.36873,-14.8167 3.26735,-10.8703 9.80832,-33.94784 12.05818,-42.54315 1.16965,-4.4685 3.18643,-11.93457 4.48138,-16.59123 15.20113,-54.66357 22.5549,-87.66255 26.71051,-119.85625 0.58768,-4.55281 1.08239,-9.96899 1.5999,-17.52038 0.29701,-4.33388 0.66892,-9.66556 0.82631,-11.84837 0.18027,-2.50065 0.2184,-7.07441 0.10335,-12.3641 -0.13854,-6.36932 -0.0713,-10.72909 0.27802,-18.06763 0.42534,-8.9361 0.43198,-11.21873 0.0879,-29.96975 -0.20485,-11.16318 -0.3367,-23.68972 -0.293,-27.83706 0.0437,-4.14735 -0.0406,-8.58418 -0.18707,-9.85935 -0.99817,-8.6879 -4.18772,-12.46538 -11.93106,-14.13092 -2.13455,-0.45914 -4.83987,-0.48369 -53.18125,-0.48369 z"
     data-part="rightLeg" /><path
     id="leftLeg"
     d="m 339.20185,693.92601 c -3.67711,0.38721 -6.39846,1.199 -8.29768,2.47582 -2.72137,1.82955 -4.04596,4.00774 -5.10047,8.38554 -0.44271,1.83787 -0.47832,4.94951 -0.56482,49.32205 -0.0624,32.01129 4.5e-4,48.87672 0.1943,52.0392 0.51708,8.43598 2.26102,25.07213 3.73931,35.67017 1.42838,10.24022 5.78389,35.06969 8.20828,46.79353 1.27125,6.14746 8.74147,36.18343 11.16315,44.8846 0.93152,3.34697 2.85078,10.2526 4.26485,15.34583 1.41408,5.09323 4.10125,14.73729 5.97173,21.43125 1.87049,6.69396 4.13174,14.9688 5.02502,18.38854 2.46131,9.42261 3.3276,12.40836 11.47475,39.55676 7.8064,26.0129 14.15754,46.1314 16.66307,52.7828 3.97867,10.5623 11.27187,27.1706 16.47083,37.5078 5.45667,10.8497 6.67797,14.1687 7.71374,20.9651 0.41661,2.7337 0.46354,5.5283 0.46354,27.5167 0,24.0036 -0.0126,24.6036 -0.65164,31.2208 -0.86827,8.9909 -0.89047,18.7106 -0.0636,27.9136 0.3138,3.4925 0.69332,8.9098 0.84336,12.0385 0.4215,8.7898 1.03526,15.0782 2.4138,24.7386 1.70701,11.9622 3.0718,17.6633 12.54136,52.3875 3.73036,13.6789 8.13661,30.1096 9.79165,36.5125 1.65503,6.4029 4.26868,16.4637 5.80791,22.3573 7.80221,29.8739 10.09527,39.3263 13.73611,56.6208 2.65164,12.5957 3.25241,15.7948 4.49895,23.9448 2.66918,17.4513 3.34437,23.3304 3.5233,30.6917 0.16421,6.7552 -0.0594,10.5153 -1.26607,21.2989 -1.15191,10.2939 -1.73781,13.9077 -5.23637,32.3019 -3.87164,20.3557 -4.0004,29.0222 -0.53744,36.1766 1.29885,2.6834 4.17768,5.7574 6.85385,7.3184 3.58434,2.0908 8.389,3.4564 18.65312,5.3026 2.91042,0.5234 8.58748,1.5961 12.61577,2.3833 11.09321,2.1679 15.61347,2.7568 25.35194,3.3047 2.69213,0.1515 7.69276,0.51 11.1125,0.7963 3.41974,0.2864 6.87255,0.5583 7.67292,0.6046 3.7726,0.2185 21.57114,0.1516 25.18038,-0.095 7.73145,-0.5273 13.6761,-1.6592 16.62999,-3.1662 1.56605,-0.7989 3.73308,-2.9036 4.55683,-4.4256 2.0385,-3.7662 1.4705,-9.4758 -1.53738,-15.4486 -2.32138,-4.6097 -6.62846,-10.6735 -12.58889,-17.7235 -12.94489,-15.3112 -15.84338,-18.8684 -21.96714,-26.9575 -10.69971,-14.1336 -16.71749,-23.2117 -20.60857,-31.0885 -4.06062,-8.2201 -5.4011,-14.9411 -6.06836,-30.4271 -0.15675,-3.638 -0.54432,-9.4721 -0.86144,-12.9646 -0.4907,-5.4041 -0.57651,-8.1235 -0.57361,-18.2562 0.003,-10.3243 0.0833,-12.75 0.60461,-18.2563 0.45253,-4.78 0.66035,-9.4246 0.83974,-18.7854 0.13108,-6.8395 0.41961,-14.6381 0.64131,-17.3302 0.85332,-10.3619 0.94415,-12.0884 1.19424,-22.6219 0.17315,-7.293 0.44819,-12.8422 0.83923,-16.9333 0.85033,-8.8965 0.85154,-24.984 0.002,-34.2636 -0.81782,-8.9337 -0.9762,-16.1866 -0.57878,-26.5348 0.45236,-11.7786 -0.008,-22.5008 -1.73271,-40.4048 -1.55937,-16.1825 -2.50147,-22.8894 -5.5547,-39.549 -1.96801,-10.7381 -3.12696,-15.8307 -8.31319,-36.5187 -6.50947,-25.9664 -8.32999,-32.395 -14.41566,-50.9049 -4.93369,-15.006 -6.29072,-20.1626 -7.03626,-26.7373 -0.39378,-3.4727 -0.18959,-13.6591 0.38757,-19.3276 1.33198,-13.0816 2.05637,-22.7662 2.27635,-30.427 0.33061,-11.5134 0.4999,-15.0974 0.93689,-19.8438 0.77211,-8.386 0.9814,-16.08902 0.84078,-30.94746 -0.11245,-11.88176 -0.24462,-15.88272 -0.69195,-20.91086 -0.30424,-3.41974 -0.73349,-9.611 -0.95394,-13.75834 -0.22045,-4.14735 -0.5759,-9.50516 -0.78962,-11.90625 -0.21372,-2.4011 -0.63138,-7.46125 -0.92811,-11.24479 -0.68444,-8.72664 -2.14887,-23.46298 -3.18123,-32.01458 -0.43919,-3.63802 -1.39617,-11.7938 -2.12701,-18.12396 -2.31496,-20.05128 -2.71897,-22.83433 -8.73331,-60.19271 -2.49061,-15.47053 -9.33857,-49.45147 -14.12731,-70.10166 -1.0815,-4.66371 -3.39924,-14.90896 -5.15058,-22.76709 -1.75135,-7.85812 -3.55602,-15.47812 -4.0101,-16.93333 -2.78335,-8.92007 -6.65718,-12.16735 -15.60938,-13.08602 -3.59705,-0.3688 -98.33735,-0.37008 -101.84185,-10e-4 z"
     data-part="leftLeg" /><defs
     id="defs1" /></svg>
